<?xml version="1.0" encoding="utf-8"?>
<!-- Generator: Adobe Illustrator 19.0.1, SVG Export Plug-In . SVG Version: 6.00 Build 0)  -->
<svg version="1.1" id="Слой_1" xmlns="http://www.w3.org/2000/svg" xmlns:xlink="http://www.w3.org/1999/xlink" x="0px" y="0px"
	 viewBox="0 0 320 320" enable-background="new 0 0 320 320" xml:space="preserve">
<rect x="310" fill="#7A222E" width="10" height="320"/>
<rect x="10" fill="#ED1B24" width="10" height="320"/>
<rect fill="#7A222E" width="10" height="320"/>
<rect x="20" fill="#7A222E" width="10" height="320"/>
<rect x="30" fill="#ED1B24" width="10" height="320"/>
<rect x="50" fill="#ED1B24" width="10" height="320"/>
<rect x="40" fill="#7A222E" width="10" height="320"/>
<rect x="60" fill="#7A222E" width="10" height="320"/>
<rect x="70" fill="#ED1B24" width="10" height="320"/>
<rect x="90" fill="#ED1B24" width="10" height="320"/>
<rect x="80" fill="#7A222E" width="10" height="320"/>
<rect x="100" fill="#7A222E" width="10" height="320"/>
<rect x="110" fill="#ED1B24" width="10" height="320"/>
<rect x="130" fill="#ED1B24" width="10" height="320"/>
<rect x="120" fill="#7A222E" width="10" height="320"/>
<rect x="140" fill="#7A222E" width="10" height="320"/>
<rect x="150" fill="#ED1B24" width="10" height="320"/>
<rect x="170" fill="#7A222E" width="10" height="320"/>
<rect x="160" fill="#ED1B24" width="10" height="320"/>
<rect x="180" fill="#ED1B24" width="10" height="320"/>
<rect x="190" fill="#7A222E" width="10" height="320"/>
<rect x="210" fill="#7A222E" width="10" height="320"/>
<rect x="200" fill="#ED1B24" width="10" height="320"/>
<rect x="220" fill="#ED1B24" width="10" height="320"/>
<rect x="230" fill="#7A222E" width="10" height="320"/>
<rect x="250" fill="#7A222E" width="10" height="320"/>
<rect x="240" fill="#ED1B24" width="10" height="320"/>
<rect x="260" fill="#ED1B24" width="10" height="320"/>
<rect x="270" fill="#7A222E" width="10" height="320"/>
<rect x="290" fill="#7A222E" width="10" height="320"/>
<rect x="280" fill="#ED1B24" width="10" height="320"/>
<rect x="300" fill="#ED1B24" width="10" height="320"/>
<rect x="310" y="80" fill="#ED1B24" width="10" height="160"/>
<rect x="10" y="80" fill="#7A222E" width="10" height="160"/>
<rect y="80" fill="#ED1B24" width="10" height="160"/>
<rect x="20" y="80" fill="#ED1B24" width="10" height="160"/>
<rect x="30" y="80" fill="#7A222E" width="10" height="160"/>
<rect x="50" y="80" fill="#7A222E" width="10" height="160"/>
<rect x="40" y="80" fill="#ED1B24" width="10" height="160"/>
<rect x="60" y="80" fill="#ED1B24" width="10" height="160"/>
<rect x="70" y="80" fill="#7A222E" width="10" height="160"/>
<rect x="90" y="80" fill="#7A222E" width="10" height="160"/>
<rect x="80" y="80" fill="#ED1B24" width="10" height="160"/>
<rect x="100" y="80" fill="#ED1B24" width="10" height="160"/>
<rect x="110" y="80" fill="#7A222E" width="10" height="160"/>
<rect x="130" y="80" fill="#7A222E" width="10" height="160"/>
<rect x="120" y="80" fill="#ED1B24" width="10" height="160"/>
<rect x="140" y="80" fill="#ED1B24" width="10" height="160"/>
<rect x="150" y="80" fill="#7A222E" width="10" height="160"/>
<rect x="170" y="80" fill="#ED1B24" width="10" height="160"/>
<rect x="160" y="80" fill="#7A222E" width="10" height="160"/>
<rect x="180" y="80" fill="#7A222E" width="10" height="160"/>
<rect x="190" y="80" fill="#ED1B24" width="10" height="160"/>
<rect x="210" y="80" fill="#ED1B24" width="10" height="160"/>
<rect x="200" y="80" fill="#7A222E" width="10" height="160"/>
<rect x="220" y="80" fill="#7A222E" width="10" height="160"/>
<rect x="230" y="80" fill="#ED1B24" width="10" height="160"/>
<rect x="250" y="80" fill="#ED1B24" width="10" height="160"/>
<rect x="240" y="80" fill="#7A222E" width="10" height="160"/>
<rect x="260" y="80" fill="#7A222E" width="10" height="160"/>
<rect x="270" y="80" fill="#ED1B24" width="10" height="160"/>
<rect x="290" y="80" fill="#ED1B24" width="10" height="160"/>
<rect x="280" y="80" fill="#7A222E" width="10" height="160"/>
<rect x="300" y="80" fill="#7A222E" width="10" height="160"/>
<g>
	
		<rect x="103.4" y="23.4" transform="matrix(-0.7071 -0.7071 0.7071 -0.7071 216.5685 249.7056)" fill-rule="evenodd" clip-rule="evenodd" fill="#ED1B24" width="113.1" height="113.1"/>
	<polygon fill-rule="evenodd" clip-rule="evenodd" fill="#7A222E" points="320,0 320,160 240,80 	"/>
	<polygon fill-rule="evenodd" clip-rule="evenodd" fill="#7A222E" points="0,0 80,80 0,160 	"/>
</g>
<g>
	
		<rect x="103.4" y="183.4" transform="matrix(-0.7071 -0.7071 0.7071 -0.7071 103.4315 522.8427)" fill-rule="evenodd" clip-rule="evenodd" fill="#7A222E" width="113.1" height="113.1"/>
	<polygon fill-rule="evenodd" clip-rule="evenodd" fill="#ED1B24" points="320,160 320,320 240,240 	"/>
	<polygon fill-rule="evenodd" clip-rule="evenodd" fill="#ED1B24" points="0,160 80,240 0,320 	"/>
</g>
</svg>
