<?xml version="1.0" encoding="utf-8"?>
<!-- Generator: Adobe Illustrator 19.0.1, SVG Export Plug-In . SVG Version: 6.00 Build 0)  -->
<svg version="1.1" id="Слой_1" xmlns="http://www.w3.org/2000/svg" xmlns:xlink="http://www.w3.org/1999/xlink" x="0px" y="0px"
	 viewBox="0 0 339.4 169.7" enable-background="new 0 0 339.4 169.7" xml:space="preserve">
<rect x="106.1" fill-rule="evenodd" clip-rule="evenodd" fill="#7A222E" width="10.6" height="85.9"/>
<rect x="93" fill-rule="evenodd" clip-rule="evenodd" fill="#ED1B24" width="13.1" height="85.9"/>
<rect x="84.8" fill-rule="evenodd" clip-rule="evenodd" fill="#7A222E" width="10.6" height="85.9"/>
<rect x="74.2" y="84.9" fill-rule="evenodd" clip-rule="evenodd" fill="#7A222E" width="10.6" height="84.9"/>
<rect x="63.6" y="84.9" fill-rule="evenodd" clip-rule="evenodd" fill="#ED1B24" width="10.6" height="84.9"/>
<rect x="53" y="84.9" fill-rule="evenodd" clip-rule="evenodd" fill="#7A222E" width="10.6" height="84.9"/>
<rect x="42.4" y="84.9" fill-rule="evenodd" clip-rule="evenodd" fill="#ED1B24" width="10.6" height="84.9"/>
<rect x="31.8" y="84.9" fill-rule="evenodd" clip-rule="evenodd" fill="#7A222E" width="10.6" height="84.9"/>
<rect x="21.2" y="84.9" fill-rule="evenodd" clip-rule="evenodd" fill="#ED1B24" width="10.6" height="84.9"/>
<rect x="10.6" y="84.9" fill-rule="evenodd" clip-rule="evenodd" fill="#7A222E" width="10.6" height="84.9"/>
<rect x="0" y="84.9" fill-rule="evenodd" clip-rule="evenodd" fill="#ED1B24" width="10.6" height="84.9"/>
<rect x="74.2" y="0" fill-rule="evenodd" clip-rule="evenodd" fill="#ED1B24" width="10.6" height="85"/>
<rect x="63.6" y="0" fill-rule="evenodd" clip-rule="evenodd" fill="#7A222E" width="10.6" height="85.9"/>
<rect x="53" y="0" fill-rule="evenodd" clip-rule="evenodd" fill="#ED1B24" width="10.6" height="85.9"/>
<rect x="42.4" y="0" fill-rule="evenodd" clip-rule="evenodd" fill="#7A222E" width="10.6" height="85.9"/>
<rect x="31.8" y="0" fill-rule="evenodd" clip-rule="evenodd" fill="#ED1B24" width="10.6" height="85.9"/>
<rect x="21.2" y="0" fill-rule="evenodd" clip-rule="evenodd" fill="#7A222E" width="10.6" height="85.9"/>
<rect x="10.6" y="0" fill-rule="evenodd" clip-rule="evenodd" fill="#ED1B24" width="10.6" height="85.9"/>
<rect x="0" y="0" fill-rule="evenodd" clip-rule="evenodd" fill="#7A222E" width="10.6" height="85.9"/>
<polygon fill-rule="evenodd" clip-rule="evenodd" fill="#7A222E" points="0,0 84.9,84.9 0,169.7 "/>
<rect x="116.7" fill-rule="evenodd" clip-rule="evenodd" fill="#ED1B24" width="10.6" height="85.9"/>
<rect x="318.2" fill-rule="evenodd" clip-rule="evenodd" fill="#ED1B24" width="10.6" height="85.9"/>
<rect x="307.6" fill-rule="evenodd" clip-rule="evenodd" fill="#7A222E" width="10.6" height="85.9"/>
<rect x="297" fill-rule="evenodd" clip-rule="evenodd" fill="#ED1B24" width="10.6" height="85.9"/>
<rect x="286.4" fill-rule="evenodd" clip-rule="evenodd" fill="#7A222E" width="10.6" height="85.9"/>
<rect x="275.8" fill-rule="evenodd" clip-rule="evenodd" fill="#ED1B24" width="10.6" height="85.9"/>
<rect x="262" fill-rule="evenodd" clip-rule="evenodd" fill="#7A222E" width="13.8" height="85.9"/>
<rect x="254.5" fill-rule="evenodd" clip-rule="evenodd" fill="#ED1B24" width="10.6" height="85.9"/>
<rect x="243.9" fill-rule="evenodd" clip-rule="evenodd" fill="#7A222E" width="10.6" height="85.9"/>
<rect x="233.3" fill-rule="evenodd" clip-rule="evenodd" fill="#ED1B24" width="10.6" height="85.9"/>
<rect x="222.7" fill-rule="evenodd" clip-rule="evenodd" fill="#7A222E" width="10.6" height="85.9"/>
<rect x="212.1" fill-rule="evenodd" clip-rule="evenodd" fill="#ED1B24" width="10.6" height="85.9"/>
<rect x="201.5" fill-rule="evenodd" clip-rule="evenodd" fill="#7A222E" width="10.6" height="85.9"/>
<rect x="190.9" fill-rule="evenodd" clip-rule="evenodd" fill="#ED1B24" width="10.6" height="85.9"/>
<rect x="180.3" fill-rule="evenodd" clip-rule="evenodd" fill="#7A222E" width="10.6" height="85.9"/>
<rect x="169.7" fill-rule="evenodd" clip-rule="evenodd" fill="#ED1B24" width="10.6" height="19.6"/>
<rect x="159.1" fill-rule="evenodd" clip-rule="evenodd" fill="#ED1B24" width="10.6" height="19.6"/>
<rect x="169.7" y="137.4" fill-rule="evenodd" clip-rule="evenodd" fill="#7A222E" width="10.6" height="32.3"/>
<rect x="159.1" y="137.4" fill-rule="evenodd" clip-rule="evenodd" fill="#7A222E" width="10.6" height="32.3"/>
<rect x="148.5" fill-rule="evenodd" clip-rule="evenodd" fill="#7A222E" width="10.6" height="85.9"/>
<rect x="137.9" fill-rule="evenodd" clip-rule="evenodd" fill="#ED1B24" width="10.6" height="85.9"/>
<rect x="127.3" fill-rule="evenodd" clip-rule="evenodd" fill="#7A222E" width="10.6" height="85.9"/>
<rect x="328.8" fill-rule="evenodd" clip-rule="evenodd" fill="#7A222E" width="10.6" height="85.9"/>
<rect x="106.1" y="84.9" fill-rule="evenodd" clip-rule="evenodd" fill="#ED1B24" width="10.6" height="84.9"/>
<rect x="93" y="84.9" fill-rule="evenodd" clip-rule="evenodd" fill="#7A222E" width="13.1" height="84.9"/>
<rect x="84.8" y="84.9" fill-rule="evenodd" clip-rule="evenodd" fill="#ED1B24" width="10.6" height="84.9"/>
<rect x="116.7" y="84.9" fill-rule="evenodd" clip-rule="evenodd" fill="#7A222E" width="10.6" height="84.9"/>
<rect x="318.2" y="84.9" fill-rule="evenodd" clip-rule="evenodd" fill="#7A222E" width="10.6" height="84.9"/>
<rect x="307.6" y="84.9" fill-rule="evenodd" clip-rule="evenodd" fill="#ED1B24" width="10.6" height="84.9"/>
<rect x="297" y="84.9" fill-rule="evenodd" clip-rule="evenodd" fill="#7A222E" width="10.6" height="84.9"/>
<rect x="286.4" y="84.9" fill-rule="evenodd" clip-rule="evenodd" fill="#ED1B24" width="10.6" height="84.9"/>
<rect x="275.8" y="84.9" fill-rule="evenodd" clip-rule="evenodd" fill="#7A222E" width="10.6" height="84.9"/>
<rect x="262" y="84.9" fill-rule="evenodd" clip-rule="evenodd" fill="#ED1B24" width="13.8" height="84.9"/>
<rect x="254.5" y="84.9" fill-rule="evenodd" clip-rule="evenodd" fill="#7A222E" width="10.6" height="84.9"/>
<rect x="243.9" y="84.9" fill-rule="evenodd" clip-rule="evenodd" fill="#ED1B24" width="10.6" height="84.9"/>
<rect x="233.3" y="84.9" fill-rule="evenodd" clip-rule="evenodd" fill="#7A222E" width="10.6" height="84.9"/>
<rect x="222.7" y="84.9" fill-rule="evenodd" clip-rule="evenodd" fill="#ED1B24" width="10.6" height="84.9"/>
<rect x="212.1" y="84.9" fill-rule="evenodd" clip-rule="evenodd" fill="#7A222E" width="10.6" height="84.9"/>
<rect x="201.5" y="84.9" fill-rule="evenodd" clip-rule="evenodd" fill="#ED1B24" width="10.6" height="84.9"/>
<rect x="190.9" y="84.9" fill-rule="evenodd" clip-rule="evenodd" fill="#7A222E" width="10.6" height="84.9"/>
<rect x="180.3" y="84.9" fill-rule="evenodd" clip-rule="evenodd" fill="#ED1B24" width="10.6" height="84.9"/>
<rect x="148.5" y="84.9" fill-rule="evenodd" clip-rule="evenodd" fill="#ED1B24" width="10.6" height="84.9"/>
<rect x="137.9" y="84.9" fill-rule="evenodd" clip-rule="evenodd" fill="#7A222E" width="10.6" height="84.9"/>
<rect x="127.3" y="84.9" fill-rule="evenodd" clip-rule="evenodd" fill="#ED1B24" width="10.6" height="84.9"/>
<rect x="328.8" y="84.9" fill-rule="evenodd" clip-rule="evenodd" fill="#ED1B24" width="10.6" height="84.9"/>
<rect x="109.7" y="24.9" transform="matrix(-0.7071 -0.7071 0.7071 -0.7071 229.7056 264.8528)" fill-rule="evenodd" clip-rule="evenodd" fill="#ED1B24" width="120" height="120"/>
<polygon fill-rule="evenodd" clip-rule="evenodd" fill="#7A222E" points="339.4,0 339.4,169.7 254.6,84.9 "/>
</svg>
