<?xml version="1.0" encoding="utf-8"?>
<!-- Generator: Adobe Illustrator 19.0.1, SVG Export Plug-In . SVG Version: 6.00 Build 0)  -->
<svg version="1.1" id="Слой_1" xmlns="http://www.w3.org/2000/svg" xmlns:xlink="http://www.w3.org/1999/xlink" x="0px" y="0px"
	 viewBox="0 0 320 320" enable-background="new 0 0 320 320" xml:space="preserve">
<rect x="0" y="310" fill="#7A222E" width="320" height="10"/>
<rect x="0" y="0" fill="#7A222E" width="320" height="10"/>
<rect x="0" y="20" fill="#7A222E" width="320" height="10"/>
<rect x="0" y="40" fill="#7A222E" width="320" height="10"/>
<rect x="0" y="60" fill="#7A222E" width="320" height="10"/>
<g>
	<rect x="0" y="10" fill="#ED1B24" width="320" height="10"/>
	<rect x="0" y="30" fill="#ED1B24" width="320" height="10"/>
	<rect x="0" y="50" fill="#ED1B24" width="320" height="10"/>
	<rect x="0" y="70" fill="#ED1B24" width="320" height="10"/>
</g>
<rect x="0" y="90" fill="#ED1B24" width="320" height="10"/>
<rect x="0" y="80" fill="#7A222E" width="320" height="10"/>
<rect x="0" y="100" fill="#7A222E" width="320" height="10"/>
<rect x="0" y="110" fill="#ED1B24" width="320" height="10"/>
<rect x="0" y="130" fill="#ED1B24" width="320" height="10"/>
<rect x="0" y="120" fill="#7A222E" width="320" height="10"/>
<rect x="0" y="140" fill="#7A222E" width="320" height="10"/>
<rect x="0" y="150" fill="#ED1B24" width="320" height="10"/>
<rect x="0" y="170" fill="#7A222E" width="320" height="10"/>
<rect x="0" y="160" fill="#ED1B24" width="320" height="10"/>
<rect x="0" y="180" fill="#ED1B24" width="320" height="10"/>
<rect x="0" y="190" fill="#7A222E" width="320" height="10"/>
<rect x="0" y="210" fill="#7A222E" width="320" height="10"/>
<rect x="0" y="200" fill="#ED1B24" width="320" height="10"/>
<rect x="0" y="220" fill="#ED1B24" width="320" height="10"/>
<rect x="0" y="230" fill="#7A222E" width="320" height="10"/>
<rect x="0" y="250" fill="#7A222E" width="320" height="10"/>
<rect x="0" y="240" fill="#ED1B24" width="320" height="10"/>
<rect x="0" y="260" fill="#ED1B24" width="320" height="10"/>
<rect x="0" y="270" fill="#7A222E" width="320" height="10"/>
<rect x="0" y="290" fill="#7A222E" width="320" height="10"/>
<rect x="0" y="280" fill="#ED1B24" width="320" height="10"/>
<rect x="0" y="300" fill="#ED1B24" width="320" height="10"/>
<rect x="80" y="310" fill="#ED1B24" width="160" height="10"/>
<rect x="80" y="10" fill="#7A222E" width="160" height="10"/>
<rect x="80" y="0" fill="#ED1B24" width="160" height="10"/>
<rect x="80" y="20" fill="#ED1B24" width="160" height="10"/>
<rect x="80" y="30" fill="#7A222E" width="160" height="10"/>
<rect x="80" y="50" fill="#7A222E" width="160" height="10"/>
<rect x="80" y="40" fill="#ED1B24" width="160" height="10"/>
<rect x="80" y="60" fill="#ED1B24" width="160" height="10"/>
<rect x="80" y="70" fill="#7A222E" width="160" height="10"/>
<rect x="80" y="90" fill="#7A222E" width="160" height="10"/>
<rect x="80" y="80" fill="#ED1B24" width="160" height="10"/>
<rect x="80" y="100" fill="#ED1B24" width="160" height="10"/>
<rect x="80" y="110" fill="#7A222E" width="160" height="10"/>
<rect x="80" y="130" fill="#7A222E" width="160" height="10"/>
<rect x="80" y="120" fill="#ED1B24" width="160" height="10"/>
<rect x="80" y="140" fill="#ED1B24" width="160" height="10"/>
<rect x="80" y="150" fill="#7A222E" width="160" height="10"/>
<rect x="80" y="170" fill="#ED1B24" width="160" height="10"/>
<rect x="80" y="160" fill="#7A222E" width="160" height="10"/>
<rect x="80" y="180" fill="#7A222E" width="160" height="10"/>
<rect x="80" y="190" fill="#ED1B24" width="160" height="10"/>
<rect x="80" y="210" fill="#ED1B24" width="160" height="10"/>
<rect x="80" y="200" fill="#7A222E" width="160" height="10"/>
<rect x="80" y="220" fill="#7A222E" width="160" height="10"/>
<rect x="80" y="230" fill="#ED1B24" width="160" height="10"/>
<rect x="80" y="250" fill="#ED1B24" width="160" height="10"/>
<rect x="80" y="240" fill="#7A222E" width="160" height="10"/>
<rect x="80" y="260" fill="#7A222E" width="160" height="10"/>
<rect x="80" y="270" fill="#ED1B24" width="160" height="10"/>
<rect x="80" y="290" fill="#ED1B24" width="160" height="10"/>
<rect x="80" y="280" fill="#7A222E" width="160" height="10"/>
<rect x="80" y="300" fill="#7A222E" width="160" height="10"/>
<g>
	
		<rect x="183.4" y="103.4" transform="matrix(0.7071 -0.7071 0.7071 0.7071 -42.8427 216.5685)" fill-rule="evenodd" clip-rule="evenodd" fill="#ED1B24" width="113.1" height="113.1"/>
	<polygon fill-rule="evenodd" clip-rule="evenodd" fill="#7A222E" points="320,320 160,320 240,240 	"/>
	<polygon fill-rule="evenodd" clip-rule="evenodd" fill="#7A222E" points="320,0 240,80 160,0 	"/>
</g>
<g>
	
		<rect x="23.4" y="103.4" transform="matrix(0.7071 -0.7071 0.7071 0.7071 -89.7056 103.4315)" fill-rule="evenodd" clip-rule="evenodd" fill="#7A222E" width="113.1" height="113.1"/>
	<polygon fill-rule="evenodd" clip-rule="evenodd" fill="#ED1B24" points="160,320 0,320 80,240 	"/>
	<polygon fill-rule="evenodd" clip-rule="evenodd" fill="#ED1B24" points="160,0 80,80 0,0 	"/>
</g>
</svg>
