<?xml version="1.0" encoding="utf-8"?>
<!-- Generator: Adobe Illustrator 19.0.1, SVG Export Plug-In . SVG Version: 6.00 Build 0)  -->
<svg version="1.1" id="Слой_1" xmlns="http://www.w3.org/2000/svg" xmlns:xlink="http://www.w3.org/1999/xlink" x="0px" y="0px"
	 viewBox="0 0 115.6 85.5" style="enable-background:new 0 0 115.6 85.5;" xml:space="preserve">
<style type="text/css">
	.st0{fill:#EB0029;}
	.st1{fill:none;stroke:#FFFFFF;stroke-width:1.9368;stroke-miterlimit:10;}
	.st2{fill:#FFFFFF;}
</style>
<g>
	<g>
		<path class="st0" d="M57.3,83.6c-14.8-0.2-28.7-4.5-39.2-12.2C7.5,63.5,1.8,53.1,1.9,42.1C2,31.2,7.9,21,18.5,13.4
			C28.9,6,42.7,1.9,57.4,1.9c0.3,0,0.6,0,0.9,0C73.1,2.1,87,6.4,97.4,14.1c10.6,7.8,16.4,18.2,16.3,29.3c-0.1,10.9-6,21.1-16.6,28.7
			c-10.4,7.4-24.2,11.5-38.8,11.5C57.9,83.6,57.6,83.6,57.3,83.6z"/>
		<path class="st0" d="M57.4,3.8c0.3,0,0.6,0,0.9,0C88,4.1,112,21.8,111.8,43.4c-0.2,21.3-24.1,38.3-53.6,38.3c-0.3,0-0.6,0-0.9,0
			C27.5,81.4,3.5,63.6,3.8,42.1C4,20.8,27.9,3.8,57.4,3.8 M57.4,0c-15,0-29.2,4.2-39.9,11.9C6.3,19.8,0.1,30.6,0,42.1
			c-0.1,11.7,5.9,22.6,17,30.8c10.7,7.9,25,12.4,40.3,12.6c0.3,0,0.6,0,0.9,0c15,0,29.2-4.2,39.9-11.9c11.1-7.9,17.3-18.7,17.4-30.2
			c0.1-11.7-5.9-22.6-17-30.8C87.8,4.6,73.5,0.2,58.3,0C58,0,57.7,0,57.4,0L57.4,0z"/>
	</g>
	<g>
		<g>
			<path class="st1" d="M57.3,81c-14.3-0.2-27.7-4.3-37.7-11.8c-9.9-7.3-15.3-17-15.2-27.1c0.2-20.8,24-37.7,52.9-37.7
				c0.3,0,0.6,0,0.9,0c14.5,0.2,28,4.4,38,12c9.7,7.3,15,16.9,14.9,26.9C110.9,64.1,87.1,81,58.2,81C57.9,81,57.6,81,57.3,81z"/>
		</g>
	</g>
	<g>
		<g>
			<g>
				<path class="st2" d="M36,68.9c-1.7,0-3.2-1.3-3.2-3.1s1.4-3.1,3.1-3.1c1.3,0,2.1,0.6,2.6,1.3l-1.2,0.8C37.1,64.4,36.7,64,36,64
					c-0.9,0-1.4,0.7-1.4,1.7c0,1,0.6,1.7,1.5,1.7c0.8,0,1.2-0.4,1.4-0.8l1.2,0.8C38.1,68.4,37.3,68.9,36,68.9z"/>
			</g>
			<g>
				<path class="st2" d="M40.8,65.7c0-1.8,1.5-3.1,3.3-3.1s3.3,1.3,3.3,3.1s-1.5,3.1-3.3,3.1S40.8,67.6,40.8,65.7z M45.6,65.7
					c0-1-0.6-1.7-1.6-1.7c-1,0-1.6,0.7-1.6,1.7c0,1,0.6,1.7,1.6,1.7C45,67.4,45.6,66.7,45.6,65.7z"/>
			</g>
			<g>
				<path class="st2" d="M49.6,65.7c0-1.8,1.5-3.1,3.3-3.1s3.3,1.3,3.3,3.1s-1.5,3.1-3.3,3.1S49.6,67.6,49.6,65.7z M54.4,65.7
					c0-1-0.6-1.7-1.6-1.7c-1,0-1.6,0.7-1.6,1.7c0,1,0.6,1.7,1.6,1.7C53.9,67.4,54.4,66.7,54.4,65.7z"/>
			</g>
			<g>
				<path class="st2" d="M62.3,62.7H64l-2,2.6l2.3,3.4h-1.9l-1.4-2.2l-0.5,0.6v1.6h-1.6v-6.1h1.6v2.5L62.3,62.7z"/>
			</g>
			<g>
				<path class="st2" d="M66.6,62.7h1.6v6.1h-1.6V62.7z"/>
			</g>
			<g>
				<path class="st2" d="M71.3,62.7h4.3v1.4h-2.6v1h2.2v1.3h-2.2v1h2.8v1.4h-4.4V62.7z"/>
			</g>
			<g>
				<path class="st2" d="M77.9,67.7l1.2-0.9c0.3,0.4,0.7,0.7,1.3,0.7c0.5,0,0.8-0.1,0.8-0.5c0-0.3-0.2-0.4-0.6-0.5l-0.7-0.2
					c-0.9-0.3-1.5-0.8-1.5-1.8c0-1.2,1-1.8,2.1-1.8c1.1,0,1.7,0.4,2.1,0.8l-0.9,1c-0.2-0.3-0.6-0.4-1.1-0.4c-0.4,0-0.6,0.2-0.6,0.4
					c0,0.2,0.1,0.3,0.4,0.4l0.8,0.3c1.2,0.4,1.6,1,1.6,1.8c0,1.1-0.7,1.9-2.3,1.9C79,68.9,78.2,68.2,77.9,67.7z"/>
			</g>
		</g>
	</g>
	<g>
		<g>
			<g>
				<g>
					<path class="st2" d="M49.6,20.2c-2.1,0.1-4.3,0.3-6.4,0.6c-0.5,0.1-0.7,0.3-0.8,0.8c-1.2,10.9-2.4,21.8-3.6,32.7
						c-0.1,0.5,0.1,0.7,0.6,0.6c1.5-0.2,2.9-0.4,4.4-0.6c0.4,0,0.7-0.3,0.7-0.7c0.1-1.7,0.3-3.5,0.4-5.2c0-0.1,0-0.5,0.1-0.7
						c0.1-0.8,0.1-0.8,0.5-0.8c0.3,0,0.6-0.1,1-0.1c0,0,0,0,0,0c0.3,0,0.6-0.1,1-0.1c0.4,0,0.4,0,0.5,0.7c0,0.1,0.1,0.6,0.1,0.7
						c0,0,0,0,0,0c0.1,1.7,0.3,3.4,0.4,5.1c0.1,0.4,0.3,0.6,0.7,0.6c1.5-0.1,3-0.2,4.4-0.2c0.5,0,0.7-0.2,0.6-0.7
						c-1.2-10.7-2.4-21.4-3.7-32C50.3,20.4,50,20.2,49.6,20.2z M47.3,43.5c-0.6,0.1-1.2,0.1-1.9,0.2c-0.2,0-0.2,0-0.2-0.7
						c0,0,0,0,0,0c0-0.1,0-0.1,0-0.2c0,0,0,0,0,0l0,0c0.2-4.2,0.5-8.5,0.7-12.7c0-0.7,0.1-0.9,0.4-0.9c0,0,0,0,0.1,0
						c0.3,0,0.4,0.1,0.4,0.7c0,0,0,0,0,0c0,0,0,0.1,0,0.1c0,0,0,0,0,0c0,0,0,0,0,0c0.2,4.3,0.4,8.5,0.6,12.8c0,0,0,0,0,0
						C47.5,43.4,47.5,43.4,47.3,43.5z"/>
					<path class="st2" d="M36.4,21.8c-0.6,0.1-1.3,0.2-1.9,0.3c-2.1,0.4-3,1.7-3.6,4.2c-1,4.8-2,9.7-3.1,14.5c0,0.1-0.2,0.2-0.2,0.1
						c-1-4.3-2-8.6-3-12.9c-0.6-2.2-1.5-3.1-3.6-2.5c-0.6,0.2-1.2,0.4-1.9,0.6c-0.4,0.1-0.7,0.5-0.7,0.9c0,10.7,0,21.4,0,32.2
						c0,0.4,0.3,0.6,0.7,0.5c1.5-0.5,3-0.9,4.5-1.4c0.4-0.1,0.7-0.5,0.7-0.9c0-4.7,0-9.4,0-14.1c0-0.1,0.2-0.2,0.2-0.1
						c1,3.5,1.9,7.1,2.9,10.7c0.1,0.1,0.1,0.2,0.2,0.2c0.1,0,0.2-0.1,0.2-0.3c1-4,1.9-8.1,2.9-12.1c0-0.1,0.2-0.2,0.2,0
						c0,4.7,0,9.4,0,14.1c0,0.4,0.3,0.6,0.7,0.5c1.5-0.3,3.1-0.6,4.6-0.9c0.4-0.1,0.7-0.4,0.7-0.8c0-10.7,0-21.4,0-32.2
						C37.1,21.9,36.8,21.7,36.4,21.8z"/>
					<path class="st2" d="M66.8,21.1c0.2-0.4-0.1-0.9-0.6-0.9c-4.5-0.3-9-0.4-13.6-0.2c-0.3,0-0.6,0.3-0.6,0.6
						c0.2,1.3,0.3,2.5,0.5,3.8c0,0.7,0.6,1.2,1.3,1.2c0.7,0,1.5,0,2.2,0c0.3,0,0.6,0.3,0.6,0.6c0,8.9,0,17.8,0,26.7
						c0,0.2,0.1,0.4,0.2,0.5c0.1,0.1,0.3,0.2,0.5,0.2c1.3,0,2.5,0,3.8,0c0.7,0,1.3-0.5,1.3-1.2c0-8.9,0-17.8,0-26.7
						c0.2,0,0.4,0,0.6,0c1,0,1.9-0.5,2.3-1.3C65.8,23.3,66.3,22.2,66.8,21.1z"/>
					<path class="st2" d="M95.7,35.3c0.3,0.1,0.5,0.2,0.8,0.3c0.5,0.1,0.6,0,0.6-0.5c0-1.1,0-2.1,0-3.2c0-0.8-0.2-1.7-0.5-2.5
						c-0.3-0.8-0.7-1.6-1.3-2.3c-0.5-0.7-1.2-1.3-1.9-1.9c-0.7-0.5-1.5-0.9-2.3-1.1c-0.6-0.2-1.2-0.3-1.8-0.5
						c-0.8-0.2-1.6-0.2-2.3-0.1c-0.7,0.1-1.4,0.4-1.9,0.9c-0.5,0.4-1,1-1.3,1.6c-0.3,0.7-0.5,1.4-0.5,2.2c0,1.9,0,3.8,0,5.7
						c0,0.7,0.1,1.3,0.3,1.8c0.2,0.5,0.6,1,1,1.6c2.1,2,4.1,4.1,6.2,6.2c0.3,0.3,0.5,0.7,0.6,1c0.1,0.3,0.2,0.7,0.2,1.2
						c0,2.1,0,4.2,0,6.3c0,0.3-0.1,0.6-0.3,0.7C91,53,90.7,53,90.4,52.9c-0.1,0-0.3-0.1-0.4-0.1c-0.3-0.1-0.6-0.3-0.8-0.5
						c-0.2-0.3-0.3-0.6-0.3-0.9c0-0.7,0-1.4,0-2.1c-0.1-1.3-0.8-3.3-4.2-4.1c0,0,0,0,0,0c-0.3-0.1-0.6-0.1-0.8-0.2
						c-0.4,0-0.6,0.3-0.6,0.7c0,1.5,0,3.1,0,4.6c0,0.8,0.2,1.6,0.5,2.4c0.3,0.8,0.8,1.5,1.3,2.2c0.5,0.7,1.2,1.2,1.9,1.7
						c0.7,0.5,1.5,0.8,2.3,1.1c0.6,0.2,1.2,0.3,1.8,0.5c0.8,0.2,1.6,0.3,2.3,0.2c0.7-0.1,1.4-0.3,1.9-0.7c0.5-0.4,1-0.9,1.3-1.5
						c0.3-0.6,0.5-1.4,0.5-2.2c0-2.7,0-5.5,0-8.2c-0.1-0.6-0.2-1.1-0.3-1.7c-0.1-0.5-0.5-1.1-1-1.7c-2.1-2.2-4.1-4.4-6.2-6.5
						c-0.3-0.3-0.4-0.6-0.5-0.9c-0.1-0.3-0.2-0.6-0.2-1c0-1.5,0-2.9,0-4.4c0-0.3,0.1-0.6,0.3-0.7c0.2-0.2,0.5-0.2,0.8-0.1
						c0.1,0,0.3,0.1,0.4,0.1c0.3,0.1,0.6,0.3,0.8,0.6c0.2,0.2,0.3,0.5,0.3,0.8c0,0,0,0,0,0c0,0,0,0.1,0,0.1c0,0,0,0,0,0
						c0,0.1,0,0.1,0,0.2C91.6,32,92.1,34.2,95.7,35.3z"/>
					<path class="st2" d="M79.8,21.8c-3-0.5-5.9-0.9-8.9-1.2c-1-0.1-1.9,0.4-2.3,1.2c-0.5,1.1-1,2.1-1.5,3.2
						c-0.2,0.4,0.1,0.9,0.6,0.9c0.8,0.1,1.6,0.1,2.4,0.2c0.4,0,0.8,0.4,0.8,0.8c0,8.8,0,17.7,0,26.5c0,0.2,0.1,0.4,0.2,0.5
						c0.1,0.1,0.3,0.2,0.5,0.2c1.4,0.2,2.9,0.3,4.3,0.5c0.4,0.1,0.7-0.2,0.7-0.6c0-9.1,0-18.2,0-27.2c0.3,0,0.6,0.1,0.9,0.1
						c2.3,0.1,3-1.5,3.2-2.9c0-0.5,0-1,0-1.5C80.5,22.3,80.2,21.9,79.8,21.8z"/>
				</g>
			</g>
			<path class="st2" d="M83.5,16.9c-0.3-0.2-0.7-0.4-1.1-0.5c-1.4-0.3-2.5,0.7-2.5,2c0,1.2,0.9,2.4,2,2.8c0.4,0.2,0.4,0.6,0.5,0.9
				c0.1,1.4-0.3,2.4-0.2,2.5c0.1,0.1,0.2,0,0.3-0.1c0.9-1.1,2.5-3.5,2.5-5.2C84.9,18.4,84.3,17.4,83.5,16.9z"/>
		</g>
	</g>
</g>
</svg>
